<?xml version='1.0' encoding='utf-8'?>
<svg xmlns="http://www.w3.org/2000/svg" enable-background="new 0 0 1511.77 1311.49" version="1.1" viewBox="0 0 1511.8 1311.5"> <style type="text/css"> .st0{fill-rule:evenodd;clip-rule:evenodd;fill:#C0E3EF;} .st1{fill-rule:evenodd;clip-rule:evenodd;fill:#1D986A;} .st2{fill-rule:evenodd;clip-rule:evenodd;fill:#178C62;} .st3{fill-rule:evenodd;clip-rule:evenodd;fill:#11805B;} .st4{fill-rule:evenodd;clip-rule:evenodd;fill:#0B7353;} .st5{fill-rule:evenodd;clip-rule:evenodd;fill:#05674B;} .st6{fill-rule:evenodd;clip-rule:evenodd;fill:#419DCC;} .st7{fill:#E34A32;} .st8{fill-rule:evenodd;clip-rule:evenodd;fill:#1A2B3C;} .st9{fill-rule:evenodd;clip-rule:evenodd;fill:#131E2E;} .st10{fill-rule:evenodd;clip-rule:evenodd;fill:#183D5C;} .st11{fill-rule:evenodd;clip-rule:evenodd;fill:#12314A;} .st12{fill-rule:evenodd;clip-rule:evenodd;fill:#FFC425;} .st13{fill-rule:evenodd;clip-rule:evenodd;fill:#EF8F0A;} .st14{fill-rule:evenodd;clip-rule:evenodd;fill:#F7A719;} .st15{fill:#FFFFFF;} .st16{fill-rule:evenodd;clip-rule:evenodd;fill:#FCAE72;} .st17{fill-rule:evenodd;clip-rule:evenodd;fill:#362225;} .st18{fill-rule:evenodd;clip-rule:evenodd;fill:#F49160;} .st19{fill-rule:evenodd;clip-rule:evenodd;fill:#EE6E19;} .st20{fill-rule:evenodd;clip-rule:evenodd;fill:#D55116;} .st21{fill-rule:evenodd;clip-rule:evenodd;fill:#FDC31F;} .st22{fill-rule:evenodd;clip-rule:evenodd;fill:#F79E12;} .st23{fill-rule:evenodd;clip-rule:evenodd;fill:#F49C11;} .st24{fill-rule:evenodd;clip-rule:evenodd;fill:#ED7B05;} .st25{fill-rule:evenodd;clip-rule:evenodd;fill:#F28C0A;} </style> <path class="st0" d="m122.83 1311.5c-177.83 0-152.09-145.65 9.96-193.83 145.69-43.31 259.74-22.25 317.8-117.37 60.44-99.01 5.79-261.03 108.63-344.39 96.03-77.84 330.21-62.78 314.76-243.68-9.9-115.88-9.35-219.52 77.02-327.64 123.23-154.26 446.02-94.72 348.05 155.49-49.64 126.77-62.9 165.77 34.1 233.67 54.06 37.84 173.68 48.45 178.57 234.23 3.6 136.78-152.82 168.61-96.09 313.55 55.81 142.6 157.49 289.96-98.66 289.96h-1194.1z"/> <rect class="st1" x="473.53" y="927.39" width="101.55" height="242.49"/> <rect class="st2" x="614.46" y="807.19" width="101.55" height="362.69"/> <rect class="st3" x="755.39" y="845.53" width="101.55" height="324.35"/> <rect class="st4" x="896.33" y="670.4" width="101.56" height="499.48"/> <rect class="st5" x="1037.3" y="535.68" width="101.55" height="634.2"/> <path class="st6" d="m717.99 1143.8c309.35 0 560.13 17.65 560.13 39.43s-250.78 39.43-560.13 39.43-560.13-17.65-560.13-39.43 250.78-39.43 560.13-39.43"/> <path class="st1" d="m209.76 917.52c60.16-17.8 113.67 19.59 106.16 78.55-41.41 4.96-76.22-24.21-106.16-78.55"/> <path class="st1" d="m234.15 785.89c62.57 2.2 124.55 69.25 85.72 127.32-48.12-5.59-75.85-48.07-85.72-127.32"/> <path class="st1" d="m431.06 830.73c-50.47-0.07-112.96 46.33-79.62 113.34 47.19-10.25 72.59-49.55 79.62-113.34"/> <path class="st1" d="m348.21 1014c-1.24-36.46 37.1-73.17 87.15-58.82-16.35 44.81-52.28 65.06-87.15 58.82"/> <polygon class="st7" points="639.08 683.62 429.75 892.94 455.13 918.32 653.42 720.03 768.16 806.61 1068.5 469.03 1089.9 488.02 1117 387.6 1020.4 426.18 1041.7 445.17 763.35 758.02 650.11 672.58"/> <path class="st8" d="m751.13 1105.2c0 5.48 1.17 10.97 1.17 16.45-14.39 11.92-31.93 22.58-48.41 25.15-7.38 1.15-12.95 8.65-14.34 15.28-1.53 7.34 5.49 11.75 12.22 11.75h46.53c9.44-1.79 13.97-4.91 21.62-8.23 0.47 2.27 0.94 4.54 1.41 6.82 9.16-0.19 18.33-0.38 27.49-0.56 7.4-0.15 6.69-1.89 7.29-8.84-1.33-20.05-4.07-37.76-5.41-57.81-16.59-0.33-32.96 0.3-49.57-0.01"/> <path class="st8" d="m910.23 1105.7c0 5.48 1.18 12.44 1.18 17.92-10.16 13.33-20.35 18.92-33.37 24.38-7.2 3.02-15.77 8.65-17.16 15.28-1.53 7.34 1.02 11.75 12.22 11.75h46.53c9.44-1.79 10.45-5.15 18.1-8.46 0.47 2.27 0.94 4.54 1.41 6.82 9.16-0.19 11.51-1.32 20.67-1.5 7.4-0.15 6.69-1.89 7.29-8.84-1.33-20.05-6.66-37.99-9.4-57.81-16.6-0.33-30.86 0.77-47.47 0.46"/> <path class="st9" d="m910.58 1112.1c0.35 3.94 0.83 8.06 0.83 11.57l-0.38 0.49c13.96 0.7 34.16-0.37 48.06-10.05-0.33-1.88-0.64-3.77-0.93-5.68-0.39 0.07-0.82 0.14-1.31 0.22-15.41 2.59-31.03 3.83-46.27 3.45"/> <path class="st10" d="m765.41 658.68c-8.9 76.22-16.26 127.21-25.16 231.24 1.78 71.43 2.94 142.24 4.72 213.67 0.08 3.06-0.83 7.37 5.68 9 16.55 4.13 33.58 2.9 50.63 1.03 6.41-0.7 6.19-5.14 6.39-10.23 2.58-66.05 7.94-126.52 7.88-196.35 6.39-35.37 12.78-70.74 19.17-106.12 21.73 100.83 43.46 201.93 66.44 302.49 2.21 9.67 2.44 8.45 7.97 8.63 15.7 0.49 31.81-0.74 47.71-3.42 5.27-0.89 4.67-0.68 3.95-6.03-19.59-144.6-42.33-297.06-57.6-442.01-45.41 0.21-92.36-2.13-137.78-1.9"/> <path class="st5" d="m243.58 930.54c34.16 8.65 74.14 51.46 86.85 94.07-3.89-41.28-3.7-74.78-11.62-105.78-8.08-31.61-47.21-99.64-74.61-124.53 18.7 8.17 62.8 62.83 79.15 120.6 4.24 14.98 10.42 57.74 10.87 88.19 5.13-37.53 16.25-75.18 33.64-106.43 9.76-17.54 36.39-55.79 55.31-60.19-36.99 25.78-85.85 112.73-85 193.68 13.57-31.31 39.06-57.26 73.37-62.61-33.72 14.82-64.05 39.75-71.58 76.96-3.23-0.24-6.46-0.48-9.68-0.72-9.11-45.18-38.11-85.74-86.7-113.24"/> <path class="st9" d="m751.99 1122c10.54 3.7 27.08 6.36 50.31 1.48-0.33-3.25-0.64-6.52-0.93-9.84l-0.07 0.01c-16.71 1.83-33.41 3.05-49.64-0.79 0.32 2.96 0.66 5.91 0.66 8.87l-0.33 0.27z"/> <path class="st11" d="m834.74 800.91c-3.97-18.14-7.95-36.29-11.92-54.43-4.67-5.92-13.54-6.95-22.88-12.68 5.37 7.19 7.38 8.89 14.92 14.42 3.08 28.65 7.06 57.3 13.87 85.95l6.01-33.26z"/> <path class="st12" d="m1059.5 168.83c54.5 0 98.69 44.18 98.69 98.69 0 54.5-44.18 98.69-98.69 98.69-54.5 0-98.69-44.18-98.69-98.69 0.01-54.5 44.19-98.69 98.69-98.69"/> <path class="st13" d="m1059.5 188.73c43.51 0 78.79 35.27 78.79 78.79 0 43.51-35.27 78.79-78.79 78.79-43.51 0-78.79-35.27-78.79-78.79 0-43.51 35.28-78.79 78.79-78.79"/> <path class="st14" d="m1059.5 194.51c40.32 0 73.01 32.69 73.01 73.01s-32.69 73.01-73.01 73.01-73.01-32.69-73.01-73.01 32.69-73.01 73.01-73.01"/> <path class="st15" d="m1067 211.52h-13.84v12.19c-10.16 2.41-20.06 10.03-20.06 24.64 0 15.37 11.05 20.7 18.03 22.99 9.14 3.05 19.18 6.6 19.18 15.75 0 5.71-4.44 10.8-10.54 10.8-5.71 0-10.67-4.7-11.05-11.94h-17.14c0.13 11.05 7.36 23.11 21.59 25.02v12.57h13.84v-12.57c13.46-3.94 20.57-14.73 20.57-25.65 0-9.4-5.97-19.3-19.43-24.26-11.05-3.94-18.03-6.35-18.03-14.48 0-5.59 4.32-9.9 9.65-9.9s9.52 4.32 9.91 10.29h15.62c0-12.19-7.11-20.95-18.29-23.24v-12.21z"/> <path class="st16" d="m787.35 290.75c-4.01 14.79-7.81 24.64-12.04 45.14-1.43 6.95-8.54 12.82-11.25 19.7-2.4 6.12 0.55 5.16 5.74 6.79 1.93 0.61 1.74 2.03 1.99 4.82 2.02 22.03 9.8 32.2 17.18 33.61 5.69 1.08 9.25 0.78 16.26-0.23 1.38 5.73 2.89 12.57 4.27 18.3-5.28 16.63-10.69 32.16-15.96 48.78 28.44-6.19 56.88-12.39 85.32-18.58-4.83-10.62-3.88-24.27-7.88-36.27-1.06-3.18-3.29-5.62-8.98-7.05-2.97-11.29-4.78-23.62-4.47-37.59-1.06-33.92-16.29-52.57-24.77-79.75-15.13 1.03-30.27 1.3-45.41 2.33"/> <path class="st17" d="m814.99 306.99c-12.15 0.81-27.49 2.44-38.78-3.99-19.3-10.99-7.71-38.4-2.72-34.18 7.24 6.13 25.27 3.97 34.64 1.94 10.67-2.3 20.98-7.66 31.88-7.64 13.65 0.02 26.13 6.37 34.24 22.69 21.97 13.15 15.12 40.24 8.94 56.65-3.93 10.42-16.68 27.59-25.03 41.39l-19.11-15.54c5.49-5.33 9.2-11.95 10.81-17.63 2.34-8.28-1.36-17.87-10.67-18.39-4.44-0.25-9.25 3.09-10.81 7.78-1.03 3.08-5.48 2.52-7.89 2.4-2.91-12.9-4.66-24.64-5.5-35.48"/> <path class="st16" d="m589.84 571.13c-3.58 0.47-7.15 0.93-10.73 1.4-16.46-8.24-27.8-17.43-34.3-27.53-3.34-1.17-5.23 1.43-5.13 3.5 0.31 6.52 3.48 15.93 9.08 18.73 0.3 17.52-5.74 36.85-12.35 47.99 16.27 3.68 35.97-3.46 56-11.67-0.86-10.8-1.71-21.61-2.57-32.42"/> <path class="st16" d="m951.35 709.96c-3.07 16.44 11.26 48.59-15.91 74.81-1.47 2.35-3.48 4.94-6.73 5.03-1.76 2.08-4.91 4.01-7.58 1.29-3.45 1.37-6.19 0.07-8.99-1.49-2.77-1.55 4.9-33.17 3.58-44.15-3.04 5.75-2.4 14.51-8.99 18.06-2.21 1.19-4.95 1.03-7.09-0.28-1.5-0.92-0.77-2.51-0.21-4.18 2.08-6.11 1.66-13.93 3.04-19.07 0.53-1.97-0.8-2.42 0.81-6.08 4.27-9.68 12.75-15.65 13.79-28.6 11.43 1.55 22.86 3.11 34.28 4.66"/> <path class="st12" d="m450.07 468.54c54.5 0 98.69 44.18 98.69 98.69 0 54.5-44.18 98.69-98.69 98.69-54.5 0-98.69-44.18-98.69-98.69 0.01-54.5 44.19-98.69 98.69-98.69"/> <path class="st13" d="m450.07 488.44c43.51 0 78.79 35.27 78.79 78.79 0 43.51-35.28 78.79-78.79 78.79s-78.79-35.28-78.79-78.79 35.28-78.79 78.79-78.79"/> <path class="st14" d="m450.07 494.22c40.32 0 73.01 32.69 73.01 73.01s-32.69 73.01-73.01 73.01-73.01-32.69-73.01-73.01 32.69-73.01 73.01-73.01"/> <path class="st15" d="m457.5 511.23h-13.84v12.19c-10.16 2.41-20.06 10.03-20.06 24.64 0 15.37 11.05 20.7 18.03 22.99 9.14 3.05 19.18 6.6 19.18 15.75 0 5.71-4.45 10.79-10.54 10.79-5.71 0-10.67-4.7-11.05-11.94h-17.14c0.13 11.05 7.37 23.11 21.59 25.02v12.57h13.84v-12.57c13.46-3.94 20.57-14.73 20.57-25.65 0-9.4-5.97-19.3-19.43-24.26-11.05-3.94-18.03-6.35-18.03-14.48 0-5.59 4.32-9.91 9.65-9.91s9.52 4.32 9.91 10.29h15.62c0-12.19-7.11-20.95-18.29-23.24v-12.19z"/> <path class="st14" d="m581.34 568.56c40.46-7.29 80.92-14.58 121.38-21.86 24.2-42.88 31.8-61.13 49.01-88.21 6.48-10.2 14.59-20.33 25.26-26.01 12.79-6.81 21.86-9.55 32.8-14.32-7.61 37.91 38.9 16.57 53.53-12.82 18.1 7.54 44.23 15.89 55.78 25.24 14.14 11.44 21.9 29.32 25.65 47.12 7.13 33.91 15.9 62.64 24.14 99.56 1.29 5.78 0.67 11.47 0.11 17.45-3.79 40.51-8.41 83.28-12.56 123.13-14.2-1-28.4-2.01-42.6-3.02-0.1-41.82 2.14-81.29 6.03-119.12-3.39-10.43-6.78-20.86-10.18-31.29-4.35 31.96-3.84 67.38-0.91 101.15 0.39 4.46-1.49 9.62-6.81 11.03-35.79 9.48-96.48 10.86-142.69 0.91 3.59-37.6 4.55-76.51 4.15-116.11-6.16 9.05-12.13 18.22-18.47 27.14-4.58 6.45-12.48 12.11-22.62 13.95-44.38 8.06-90.96 9.89-137.59 12.44-1.15-15.45-2.28-30.9-3.41-46.36"/> <path class="st13" d="m958.66 696.47c-17.24 0.01-32.5-1.38-44.65-4.96-0.04 2-0.07 4.01-0.09 6.02 14.76 2.29 29.52 3.3 44.28 3.4l0.46-4.46zm-354.08-132.1c4.01 14.42 5.54 31.77 3.7 49.29l-2.65 0.14-2.55-49.17 1.5-0.26zm97.16-17.5c1.97 10.58 7.08 17.89 18.33 24.81-4.82-10.55-13.31-15.02-17.37-24.98l-0.96 0.17zm87.83 107.44c40.57 8.25 81.55-1.4 95.1-20.18-12.76 10.75-32.14 14.74-55.61 17.5-16.37 1.92-33.72 1.48-39.49 2.68zm78.68-246.97c-9.35 17.22-31.52 36.52-49.13 36.47-10.75-0.03-14.47-5.48-13.09-24.07 1.23-0.51 2.48-1.04 3.75-1.59-7.61 37.91 38.9 16.57 53.53-12.82 1.59 0.66 3.24 1.33 4.94 2.01zm15.96 70.98c4.91 4.14 14.44 43.15 25.4 86.59-1.01 7.54-1.76 15.28-2.27 23.14-12.58-20.38-16.41-69.44-23.13-109.73zm-120.98 83.34-0.19-87.88c-3.16 39.22-8.51 39-14.5 109.62 4.97-7.19 9.78-14.51 14.69-21.74z"/> <path class="st11" d="m761.96 687.73c41.74 10.91 105.05 6.3 143.82-3.16-0.34-3.09-0.68-6.17-1.01-9.25-0.81 0.56-1.74 0.99-2.82 1.28-34.81 9.22-93.18 10.77-138.86 1.7-0.38 3.17-0.75 6.31-1.13 9.43"/> <path class="st18" d="m562.18 582.11c-3.6 7.54-9.39 10.76-17.77 14.16 0.86-2.88 1.63-5.86 2.27-8.91 4.61-0.6 10.09-2.72 15.5-5.25"/> <path class="st18" d="m916.41 791.45c-0.5-0.12-0.99-0.28-1.48-0.47 4.27-12.01 6.29-24.6 9.21-36.86-1.53 12.31-2.16 24.43-7.73 37.33m5.99 0.59c-0.42-0.21-0.83-0.51-1.23-0.91 4.6-12.12 6.82-24.89 9.96-37.3-1.74 12.61-2.56 25.02-8.73 38.21zm17.42-11.96c-1.02 1.22-2.11 2.42-3.29 3.62 4.12-10.97 6.55-22.44 9.74-33.6-1.69 9.96-2.79 19.83-6.45 29.98zm-1.52-27.53c-1.75 12.26-2.62 24.34-8.4 37.1-0.38 0.09-0.77 0.14-1.19 0.15-0.27 0.32-0.57 0.63-0.9 0.93 4.9-12.38 7.21-25.47 10.49-38.18z"/> <path class="st18" d="m772.13 370.27c0.16 1.34 0.35 2.64 0.56 3.88 2.67 1.7 6.54 3.22 9.44 2.66 5.33-1.03 9.9-5.4 12.53-10.02-4.37 3.85-7.77 6.58-12.53 6.94-3.5 0.26-6.87-1.64-10-3.46m58.38-20.64c0.19-1.48 0.39-2.96 0.58-4.43 2.31-4.69 7-9.44 9.83-6.55 4.13 4.21 2.44 12.34-5.01 19.66-1.61-0.19-3.21-0.39-4.82-0.58 3.86-3.85 6.81-7.12 8.67-11.57 0.49-1.17-0.54-4.49-2.7-2.89-2.4 1.79-4.36 4.31-6.55 6.36zm-25.27 50.95c13.87-4 24.31-12.57 30.48-26.85-3.85 18.86-11.89 33.38-27.38 40.16-1.04-4.46-2.1-9.17-3.1-13.31z"/> <path class="st17" d="m784.64 342.5c0.33-3.25 1.76-4.68 3.86-5.2 1.8-0.45 4.22 1.23 4.24 3.08 0.02 2.4-0.4 5.85-1.73 7.71-0.98 1.37-3.74 0.34-5.01-0.77-1.27-1.1-1.53-3.16-1.36-4.82m2.12-14.46c-3.42 0.04-2.31-4.11-0.77-4.24 4.88-0.4 10.09 1.84 14.46 4.05 1.04 0.53 0.38 3.12-0.77 2.89-3.62-0.72-7.46-2.75-12.92-2.7z"/> <path class="st19" d="m261.97 1036.8h144.02c2.64 0 4.79 2.16 4.79 4.79v20.48c0 6.99-4.55 8.5-9.8 8.5h-134c-5.25 0-9.8-1.5-9.8-8.5v-20.48c-0.01-2.64 2.15-4.79 4.79-4.79"/> <path class="st19" d="m272.86 1059.6h122.22c1.8 0 3.24 1.47 3.27 3.27 0.38 25.63-7.34 65.7-13.18 90.28-1.57 6.58-6.11 12.78-14.71 12.78h-72.98c-8.6 0-13.14-6.19-14.71-12.78-5.84-24.58-13.56-64.65-13.18-90.28 0.03-1.8 1.47-3.27 3.27-3.27"/> <path class="st20" d="m270.02 1076.6c22.5 5.73 95.34 7.13 127.87 0.65 0.16-2.29 0.29-4.53 0.37-6.7h-128.56c0.07 1.97 0.18 3.99 0.32 6.05"/> <path class="st21" d="m1109.1 1121.8c40.26 0 72.9 8.39 72.9 18.74s-32.64 18.74-72.9 18.74-72.9-8.39-72.9-18.74 32.64-18.74 72.9-18.74"/> <path class="st22" d="m1182 1165c0 10.35-32.64 18.74-72.9 18.74s-72.9-8.39-72.9-18.74v-24.5c0 10.35 32.64 18.74 72.9 18.74s72.9-8.39 72.9-18.74v24.5z"/> <path class="st23" d="m1109.1 1128.5c30.81 0 55.79 4.79 55.79 10.7s-24.98 10.7-55.79 10.7-55.79-4.79-55.79-10.7 24.98-10.7 55.79-10.7"/> <path class="st21" d="m1124.7 1085.8c40.26 0 72.9 8.39 72.9 18.74s-32.64 18.74-72.9 18.74-72.89-8.39-72.89-18.74 32.64-18.74 72.89-18.74"/> <path class="st22" d="m1197.6 1129c0 10.35-32.64 18.74-72.9 18.74s-72.89-8.39-72.89-18.74v-24.5c0 10.35 32.64 18.74 72.89 18.74 40.26 0 72.9-8.39 72.9-18.74v24.5z"/> <path class="st23" d="m1124.7 1092.5c30.81 0 55.79 4.79 55.79 10.7s-24.98 10.7-55.79 10.7-55.79-4.79-55.79-10.7c0.01-5.91 24.98-10.7 55.79-10.7"/> <path class="st21" d="m1109.4 1049.7c40.26 0 72.9 8.39 72.9 18.74s-32.64 18.74-72.9 18.74-72.9-8.39-72.9-18.74 32.64-18.74 72.9-18.74"/> <path class="st22" d="m1182.3 1093c0 10.35-32.64 18.74-72.9 18.74s-72.9-8.39-72.9-18.74v-24.5c0 10.35 32.64 18.74 72.9 18.74s72.9-8.39 72.9-18.74v24.5z"/> <path class="st23" d="m1109.4 1056.5c30.81 0 55.79 4.79 55.79 10.7s-24.98 10.7-55.79 10.7-55.79-4.79-55.79-10.7 24.98-10.7 55.79-10.7"/> <path class="st21" d="m1125 1010.6c40.26 0 72.9 8.39 72.9 18.74s-32.64 18.74-72.9 18.74-72.9-8.39-72.9-18.74c0.01-10.35 32.64-18.74 72.9-18.74"/> <path class="st22" d="m1197.9 1053.8c0 10.35-32.64 18.74-72.9 18.74s-72.9-8.39-72.9-18.74v-24.5c0 10.35 32.64 18.74 72.9 18.74s72.9-8.39 72.9-18.74v24.5z"/> <path class="st23" d="m1125 1017.4c30.81 0 55.79 4.79 55.79 10.7s-24.98 10.7-55.79 10.7-55.79-4.79-55.79-10.7 24.98-10.7 55.79-10.7"/> <path class="st22" d="m1178.9 1019.2c0 10.35-33.76 18.74-75.41 18.74-41.64 0-75.4-8.39-75.4-18.74v-24.5c0 10.35 33.76 18.74 75.4 18.74 41.65 0 75.41-8.39 75.41-18.74v24.5z"/> <path class="st21" d="m1103.4 975.98c41.65 0 75.41 8.39 75.41 18.74s-33.76 18.74-75.41 18.74c-41.64 0-75.4-8.39-75.4-18.74s33.76-18.74 75.4-18.74"/> <path class="st23" d="m1103.4 982.74c31.87 0 57.71 4.79 57.71 10.7s-25.84 10.7-57.71 10.7-57.71-4.79-57.71-10.7c0.01-5.91 25.84-10.7 57.71-10.7"/> <path class="st21" d="m1124.6 931.12c37.82 0 68.48 8.19 68.48 18.3s-30.66 18.3-68.48 18.3-68.48-8.19-68.48-18.3 30.66-18.3 68.48-18.3"/> <path class="st22" d="m1193.1 973.35c0 10.11-30.66 18.3-68.48 18.3s-68.48-8.19-68.48-18.3v-23.93c0 10.11 30.66 18.3 68.48 18.3s68.48-8.19 68.48-18.3v23.93z"/> <path class="st23" d="m1124.6 937.73c28.94 0 52.41 4.68 52.41 10.45s-23.46 10.45-52.41 10.45c-28.94 0-52.41-4.68-52.41-10.45 0-5.78 23.46-10.45 52.41-10.45"/> <path class="st24" d="m1178.8 995.35c-12.2 3-28.47 4.83-46.34 4.83-37.81 0-68.46-8.19-68.48-18.29 11.48 5.81 34.3 9.77 60.58 9.77 18.19 0 34.71-1.89 46.98-4.99 4.68 2.44 7.31 5.17 7.31 8.06 0 0.2-0.02 0.41-0.05 0.62"/> <path class="st24" d="m1178.2 1024.9c0 10.35-33.76 18.74-75.4 18.74-19.53 0-37.32-1.84-50.71-4.87v-5.83c13.46 3.11 31.5 5.02 51.34 5.02 38.33 0 69.98-7.11 74.77-16.31v3.25z"/> <path class="st24" d="m1180.5 1072.6c-13.37 4.04-33.28 6.6-55.52 6.6-40.26 0-72.9-8.39-72.9-18.74v-3.58c0.27-0.09 0.53-0.17 0.8-0.26 5.24 9.03 35.52 15.95 72.09 15.95 22.79 0 43.14-2.69 56.51-6.9 0.53 0.91 0.8 1.84 0.8 2.79 0.01 1.42-0.61 2.8-1.78 4.14"/> <path class="st24" d="m1181.4 1098c0 10.35-30.52 18.48-68.17 18.16-28.9-0.25-53.6-5.4-63.52-12.47 13.18 4.84 35.02 8 59.74 8 36.26 0 66.33-6.81 71.95-15.72v2.03z"/> <path class="st24" d="m1178.3 1146.4c-13.1 3.42-30.88 5.67-50.47 5.96-40.26 0.59-72.9-7.33-72.9-17.68v-0.21c9.1 7.68 36.88 13.27 69.74 13.27 23.25 0 43.96-2.8 57.31-7.16-0.03 2.03-1.32 3.99-3.68 5.82"/> <path class="st25" d="m1155.3 1008.3v24.5c14.52-3.42 23.57-8.25 23.57-13.61v-24.5c0 5.36-9.06 10.2-23.57 13.61"/> <path class="st25" d="m1156.1 1082.9v24.5c16.02-3.44 26.22-8.61 26.22-14.4v-24.5c0 5.79-10.2 10.96-26.22 14.4"/> <path class="st25" d="m1159.4 1154.1v24.5c13.94-3.41 22.62-8.23 22.62-13.57v-24.5c0.01 5.33-8.68 10.15-22.62 13.57"/> <path class="st25" d="m1072.3 1142v-24.5c-12.72-3.37-20.55-7.97-20.55-13.04v24.5c0 5.07 7.83 9.67 20.55 13.04"/> <path class="st25" d="m1074.8 1067.4v-24.5c-13.95-3.41-22.65-8.23-22.65-13.58v24.5c0.01 5.35 8.7 10.17 22.65 13.58"/> <path class="st25" d="m1073.1 985.43v-23.93c-10.6-3.22-17.04-7.45-17.04-12.08v23.93c0 4.63 6.43 8.86 17.04 12.08"/> </svg>